<?xml version="1.0" standalone="no"?>
<!DOCTYPE svg PUBLIC "-//W3C//DTD SVG 20010904//EN"
 "http://www.w3.org/TR/2001/REC-SVG-20010904/DTD/svg10.dtd">
<svg version="1.0" xmlns="http://www.w3.org/2000/svg"
 width="200.000000pt" height="200.000000pt" viewBox="0 0 200.000000 200.000000"
 preserveAspectRatio="xMidYMid meet">
<metadata>
Created by potrace 1.14, written by Peter Selinger 2001-2017
</metadata>
<g transform="translate(0.000000,200.000000) scale(0.100000,-0.100000)"
fill="#000000" stroke="none">
<path d="M0 1000 l0 -1000 1000 0 1000 0 0 1000 0 1000 -1000 0 -1000 0 0
-1000z m1066 784 c107 -51 109 -210 4 -264 -51 -26 -95 -25 -144 3 -52 30 -78
79 -73 138 9 108 116 169 213 123z m21 -412 c63 -45 63 -41 63 -571 0 -463 -1
-483 -20 -521 -23 -45 -81 -80 -132 -80 -46 0 -107 38 -130 80 -17 33 -18 62
-16 530 3 493 3 495 25 526 47 65 146 82 210 36z"/>
</g>
</svg>
